<svg width="11" height="43" viewBox="0 0 11 43" fill="none" xmlns="http://www.w3.org/2000/svg">
<path d="M3.42188 42.0234H0C0.84375 41.0391 1.625 39.7656 2.34375 38.2031C3.0625 36.6406 3.6875 34.8984 4.21875 32.9766C4.76562 31.0547 5.1875 29.0703 5.48438 27.0234C5.78125 24.9609 5.92969 22.9531 5.92969 21C5.92969 19.0469 5.78125 17.0469 5.48438 15C5.1875 12.9375 4.76562 10.9531 4.21875 9.04688C3.6875 7.125 3.0625 5.38281 2.34375 3.82031C1.625 2.25781 0.84375 0.984375 0 0H3.42188C4.95312 1.9375 6.20312 4 7.17188 6.1875C8.15625 8.35938 8.88281 10.6797 9.35156 13.1484C9.83594 15.6016 10.0781 18.2188 10.0781 21C10.0781 23.7812 9.83594 26.4062 9.35156 28.875C8.88281 31.3438 8.15625 33.6719 7.17188 35.8594C6.20312 38.0469 4.95312 40.1016 3.42188 42.0234Z" fill="black" fill-opacity="0.65"/>
</svg>
