<svg width="30" height="45" viewBox="0 0 30 45" fill="none" xmlns="http://www.w3.org/2000/svg">
<path d="M0 44.0625V0.625H5.4375V6.125H5.5625C6.25 4.85417 7.09375 3.77083 8.09375 2.875C9.11458 1.95833 10.2812 1.25 11.5938 0.75C12.9062 0.25 14.3333 0 15.875 0C18.6458 0 21.0625 0.697917 23.125 2.09375C25.2083 3.46875 26.8229 5.42708 27.9688 7.96875C29.1146 10.4896 29.6875 13.4583 29.6875 16.875V16.9062C29.6875 20.3229 29.1042 23.2917 27.9375 25.8125C26.7917 28.3333 25.1875 30.2917 23.125 31.6875C21.0833 33.0625 18.6979 33.75 15.9688 33.75C14.4479 33.75 13.0208 33.5104 11.6875 33.0312C10.3542 32.5312 9.16667 31.8333 8.125 30.9375C7.10417 30.0208 6.25 28.9375 5.5625 27.6875H5.4375V44.0625H0ZM14.8125 28.9375C16.7292 28.9375 18.3854 28.4479 19.7812 27.4688C21.1771 26.4896 22.25 25.1042 23 23.3125C23.75 21.5 24.125 19.3646 24.125 16.9062V16.875C24.125 14.375 23.75 12.2292 23 10.4375C22.25 8.625 21.1771 7.23958 19.7812 6.28125C18.3854 5.30208 16.7292 4.8125 14.8125 4.8125C12.9792 4.8125 11.3542 5.3125 9.9375 6.3125C8.52083 7.3125 7.40625 8.71875 6.59375 10.5312C5.80208 12.3229 5.40625 14.4375 5.40625 16.875V16.9062C5.40625 19.3229 5.8125 21.4375 6.625 23.25C7.4375 25.0417 8.54167 26.4375 9.9375 27.4375C11.3542 28.4375 12.9792 28.9375 14.8125 28.9375Z" fill="black" fill-opacity="0.65"/>
</svg>
