<svg width="26" height="17" viewBox="0 0 26 17" fill="none" xmlns="http://www.w3.org/2000/svg">
<path d="M25.2734 9.07227C25.2734 9.76888 25.2246 10.3548 25.127 10.8301C25.0293 11.2988 24.8438 11.6992 24.5703 12.0312C24.2969 12.3568 23.8997 12.653 23.3789 12.9199L17.8906 15.7422C17.2135 16.0872 16.582 16.3444 15.9961 16.5137C15.4102 16.6895 14.8112 16.7676 14.1992 16.748C13.5872 16.7285 12.9036 16.6081 12.1484 16.3867L3.69141 13.9258C2.38932 13.5417 1.44857 12.9557 0.869141 12.168C0.289714 11.3737 0 10.3418 0 9.07227V2.97852C0 2.0931 0.270182 1.37695 0.810547 0.830078C1.35091 0.283203 2.05729 0.00976562 2.92969 0.00976562L22.3242 0C23.2096 0 23.9225 0.273438 24.4629 0.820312C25.0033 1.36068 25.2734 2.07031 25.2734 2.94922V9.07227ZM23.7012 9.07227V2.97852C23.7012 2.55534 23.571 2.2168 23.3105 1.96289C23.0566 1.70247 22.7214 1.57227 22.3047 1.57227L2.95898 1.58203C2.54232 1.58203 2.20703 1.71224 1.95312 1.97266C1.69922 2.23307 1.57227 2.57812 1.57227 3.00781V9.07227C1.57227 9.66471 1.66016 10.1823 1.83594 10.625C2.01172 11.0612 2.28841 11.429 2.66602 11.7285C3.04362 12.028 3.53841 12.2689 4.15039 12.4512L12.1484 14.8242C12.8255 15.026 13.4277 15.1432 13.9551 15.1758C14.4824 15.2083 14.9902 15.1562 15.4785 15.0195C15.9668 14.8893 16.4909 14.6842 17.0508 14.4043L22.3828 11.6797C22.7344 11.5039 23.0046 11.3086 23.1934 11.0938C23.3822 10.8724 23.5124 10.6022 23.584 10.2832C23.6621 9.95768 23.7012 9.55404 23.7012 9.07227ZM8.4375 11.377C8.21615 11.377 8.04362 11.3118 7.91992 11.1816C7.80273 11.0514 7.74414 10.8724 7.74414 10.6445V4.0625C7.74414 3.8737 7.8125 3.71094 7.94922 3.57422C8.09245 3.43099 8.26172 3.35938 8.45703 3.35938C8.64583 3.35938 8.80859 3.43099 8.94531 3.57422C9.08854 3.71094 9.16016 3.8737 9.16016 4.0625V10.1953H11.25C11.4128 10.1953 11.5527 10.2539 11.6699 10.3711C11.7871 10.4883 11.8457 10.625 11.8457 10.7812C11.8457 10.944 11.7871 11.084 11.6699 11.2012C11.5527 11.3184 11.4128 11.377 11.25 11.377H8.4375ZM15.0586 11.543C14.5312 11.543 14.0462 11.4225 13.6035 11.1816C13.1608 10.9342 12.8711 10.5827 12.7344 10.127C12.6823 9.96419 12.6562 9.79492 12.6562 9.61914C12.6562 9.42383 12.7148 9.27409 12.832 9.16992C12.9492 9.05924 13.1022 9.00391 13.291 9.00391C13.61 9.00391 13.8151 9.16341 13.9062 9.48242C13.9648 9.70378 14.082 9.91536 14.2578 10.1172C14.4336 10.3125 14.7005 10.4102 15.0586 10.4102C15.4232 10.4102 15.6934 10.2865 15.8691 10.0391C16.0514 9.79167 16.1426 9.4987 16.1426 9.16016C16.1426 8.73698 16.0319 8.41471 15.8105 8.19336C15.5892 7.96549 15.2702 7.85156 14.8535 7.85156H14.6094C14.2448 7.85156 14.0625 7.68229 14.0625 7.34375C14.0625 6.99219 14.2448 6.81641 14.6094 6.81641H14.8438C15.2083 6.81641 15.485 6.70247 15.6738 6.47461C15.8691 6.24023 15.9668 5.94401 15.9668 5.58594C15.9668 5.26693 15.8887 4.99674 15.7324 4.77539C15.5762 4.55404 15.3385 4.44336 15.0195 4.44336C14.7396 4.44336 14.5182 4.52799 14.3555 4.69727C14.1992 4.86654 14.082 5.0944 14.0039 5.38086C13.9583 5.55013 13.8835 5.67057 13.7793 5.74219C13.6816 5.8138 13.5482 5.84961 13.3789 5.84961C13.1901 5.84961 13.0436 5.79427 12.9395 5.68359C12.8353 5.56641 12.7832 5.42969 12.7832 5.27344C12.7832 5.1888 12.7865 5.10417 12.793 5.01953C12.806 4.92839 12.8255 4.83724 12.8516 4.74609C12.9948 4.3099 13.265 3.96159 13.6621 3.70117C14.0592 3.44076 14.5117 3.31055 15.0195 3.31055C15.651 3.31055 16.1882 3.49609 16.6309 3.86719C17.0736 4.23177 17.2949 4.7526 17.2949 5.42969C17.2949 5.83984 17.1875 6.2207 16.9727 6.57227C16.7578 6.92383 16.429 7.1582 15.9863 7.27539V7.30469C16.3965 7.35026 16.7546 7.52604 17.0605 7.83203C17.373 8.13802 17.5293 8.59375 17.5293 9.19922C17.5293 9.9349 17.2917 10.5111 16.8164 10.9277C16.3411 11.3379 15.7552 11.543 15.0586 11.543Z" fill="black"/>
</svg>

