<svg width="23" height="18" viewBox="0 0 23 18" fill="none" xmlns="http://www.w3.org/2000/svg">
<path d="M8.19336 0H14.3359C16.224 0 17.7702 0.292969 18.9746 0.878906C20.1855 1.45833 21.0807 2.33724 21.6602 3.51562C22.2396 4.6875 22.5293 6.16211 22.5293 7.93945V14.0625C22.5293 15.0456 22.2754 15.7845 21.7676 16.2793C21.2663 16.7806 20.5208 17.0312 19.5312 17.0312H2.99805C2.00846 17.0312 1.25977 16.7839 0.751953 16.2891C0.250651 15.7943 0 15.0521 0 14.0625V7.93945C0 6.16211 0.289714 4.6875 0.869141 3.51562C1.44857 2.33724 2.34049 1.45833 3.54492 0.878906C4.75586 0.292969 6.30534 0 8.19336 0ZM8.19336 1.57227C6.6569 1.57227 5.40039 1.80013 4.42383 2.25586C3.44727 2.70508 2.72786 3.39193 2.26562 4.31641C1.80339 5.24089 1.57227 6.41276 1.57227 7.83203V13.9844C1.57227 14.9674 2.06055 15.459 3.03711 15.459H19.4922C19.9609 15.459 20.3223 15.3353 20.5762 15.0879C20.8301 14.8405 20.957 14.4727 20.957 13.9844V7.83203C20.957 6.41276 20.7227 5.24089 20.2539 4.31641C19.7917 3.39193 19.0723 2.70508 18.0957 2.25586C17.1257 1.80013 15.8691 1.57227 14.3262 1.57227H8.19336ZM7.79297 12.4707C7.57161 12.4707 7.39909 12.4056 7.27539 12.2754C7.1582 12.1452 7.09961 11.9661 7.09961 11.7383V5.15625C7.09961 4.96745 7.16797 4.80469 7.30469 4.66797C7.44792 4.52474 7.61719 4.45312 7.8125 4.45312C8.0013 4.45312 8.16406 4.52474 8.30078 4.66797C8.44401 4.80469 8.51562 4.96745 8.51562 5.15625V11.2891H10.6055C10.7682 11.2891 10.9082 11.3477 11.0254 11.4648C11.1426 11.582 11.2012 11.7188 11.2012 11.875C11.2012 12.0378 11.1426 12.1777 11.0254 12.2949C10.9082 12.4121 10.7682 12.4707 10.6055 12.4707H7.79297ZM13.5059 12.5879C13.3105 12.5879 13.1413 12.5195 12.998 12.3828C12.8613 12.2461 12.793 12.0768 12.793 11.875V5.75195H11.5723C11.403 5.75195 11.2598 5.69661 11.1426 5.58594C11.0319 5.46875 10.9766 5.32552 10.9766 5.15625C10.9766 4.99349 11.0319 4.85677 11.1426 4.74609C11.2598 4.62891 11.403 4.57031 11.5723 4.57031H15.4004C15.5632 4.57031 15.6999 4.62891 15.8105 4.74609C15.9277 4.85677 15.9863 4.99349 15.9863 5.15625C15.9863 5.32552 15.9277 5.46875 15.8105 5.58594C15.6999 5.69661 15.5632 5.75195 15.4004 5.75195H14.2188V11.875C14.2188 12.0768 14.1471 12.2461 14.0039 12.3828C13.8672 12.5195 13.7012 12.5879 13.5059 12.5879Z" fill="black"/>
</svg>

