<svg width="32" height="32" viewBox="0 0 32 32" fill="none" xmlns="http://www.w3.org/2000/svg">
<path d="M15.9375 31.875C13.7396 31.875 11.6771 31.4583 9.75 30.625C7.82292 29.8021 6.13021 28.6615 4.67188 27.2031C3.21354 25.7448 2.06771 24.0521 1.23438 22.125C0.411458 20.1979 0 18.1354 0 15.9375C0 13.7396 0.411458 11.6771 1.23438 9.75C2.06771 7.82292 3.21354 6.13021 4.67188 4.67188C6.13021 3.20312 7.82292 2.05729 9.75 1.23438C11.6771 0.411458 13.7396 0 15.9375 0C18.1354 0 20.1979 0.411458 22.125 1.23438C24.0521 2.05729 25.7448 3.20312 27.2031 4.67188C28.6615 6.13021 29.8021 7.82292 30.625 9.75C31.4583 11.6771 31.875 13.7396 31.875 15.9375C31.875 18.1354 31.4583 20.1979 30.625 22.125C29.8021 24.0521 28.6615 25.7448 27.2031 27.2031C25.7448 28.6615 24.0521 29.8021 22.125 30.625C20.1979 31.4583 18.1354 31.875 15.9375 31.875ZM15.9375 29.2188C17.7708 29.2188 19.4896 28.875 21.0938 28.1875C22.6979 27.5 24.1094 26.5469 25.3281 25.3281C26.5469 24.1094 27.5 22.6979 28.1875 21.0938C28.875 19.4896 29.2188 17.7708 29.2188 15.9375C29.2188 14.1042 28.875 12.3854 28.1875 10.7812C27.5 9.16667 26.5469 7.75521 25.3281 6.54688C24.1094 5.32812 22.6979 4.375 21.0938 3.6875C19.4896 3 17.7708 2.65625 15.9375 2.65625C14.1042 2.65625 12.3854 3 10.7812 3.6875C9.17708 4.375 7.76562 5.32812 6.54688 6.54688C5.32812 7.75521 4.375 9.16667 3.6875 10.7812C3 12.3854 2.65625 14.1042 2.65625 15.9375C2.65625 17.7708 3 19.4896 3.6875 21.0938C4.375 22.6979 5.32812 24.1094 6.54688 25.3281C7.76562 26.5469 9.17708 27.5 10.7812 28.1875C12.3854 28.875 14.1042 29.2188 15.9375 29.2188ZM11.2656 23.0938C10.9531 23.0938 10.6823 22.9896 10.4531 22.7812C10.2344 22.5729 10.125 22.3177 10.125 22.0156C10.125 21.7344 10.2135 21.4635 10.3906 21.2031L14.375 15.7031L10.625 10.5469C10.4062 10.2448 10.2969 9.94271 10.2969 9.64062C10.2969 9.32812 10.4167 9.05729 10.6562 8.82812C10.8958 8.59896 11.1823 8.48438 11.5156 8.48438C11.776 8.48438 11.9948 8.53646 12.1719 8.64062C12.349 8.74479 12.526 8.92188 12.7031 9.17188L16.0312 14H16.1094L19.375 9.1875C19.5417 8.92708 19.7083 8.74479 19.875 8.64062C20.0521 8.53646 20.2656 8.48438 20.5156 8.48438C20.849 8.48438 21.125 8.59375 21.3438 8.8125C21.5729 9.02083 21.6875 9.27604 21.6875 9.57812C21.6875 9.85938 21.5885 10.1354 21.3906 10.4062L17.4375 15.7812L21.3594 21.1406C21.5573 21.3906 21.6562 21.6615 21.6562 21.9531C21.6562 22.2865 21.5365 22.5625 21.2969 22.7812C21.0677 22.9896 20.776 23.0938 20.4219 23.0938C20.1823 23.0938 19.9792 23.0417 19.8125 22.9375C19.6458 22.8333 19.4635 22.6458 19.2656 22.375L15.8906 17.5625H15.8281L12.4531 22.375C12.2552 22.6458 12.0729 22.8333 11.9062 22.9375C11.7396 23.0417 11.526 23.0938 11.2656 23.0938Z" fill="black"/>
</svg>

