<svg width="45" height="34" viewBox="0 0 45 34" fill="none" xmlns="http://www.w3.org/2000/svg">
<path d="M0 33.125V0.625H5.4375V5.375H5.5625C6.29167 3.77083 7.4375 2.47917 9 1.5C10.5625 0.5 12.3854 0 14.4688 0C15.9479 0 17.2812 0.25 18.4688 0.75C19.6771 1.22917 20.7188 1.9375 21.5938 2.875C22.4688 3.79167 23.1354 4.91667 23.5938 6.25H23.7188C24.3229 4.9375 25.125 3.82292 26.125 2.90625C27.1458 1.96875 28.3125 1.25 29.625 0.75C30.9583 0.25 32.3854 0 33.9062 0C36.0521 0 37.9167 0.447917 39.5 1.34375C41.0833 2.21875 42.3125 3.45833 43.1875 5.0625C44.0625 6.64583 44.5 8.52083 44.5 10.6875V33.125H39.0625V11.9375C39.0625 10.4375 38.7917 9.15625 38.25 8.09375C37.7292 7.03125 36.9688 6.21875 35.9688 5.65625C34.9688 5.09375 33.75 4.8125 32.3125 4.8125C30.875 4.8125 29.6042 5.14583 28.5 5.8125C27.3958 6.45833 26.5312 7.36458 25.9062 8.53125C25.2812 9.67708 24.9688 10.9896 24.9688 12.4688V33.125H19.5312V11.3438C19.5312 10.0312 19.25 8.88542 18.6875 7.90625C18.1458 6.92708 17.375 6.16667 16.375 5.625C15.3958 5.08333 14.2292 4.8125 12.875 4.8125C11.4375 4.8125 10.1562 5.16667 9.03125 5.875C7.92708 6.5625 7.05208 7.5 6.40625 8.6875C5.76042 9.875 5.4375 11.2292 5.4375 12.75V33.125H0Z" fill="black" fill-opacity="0.65"/>
</svg>
